<svg xmlns="http://www.w3.org/2000/svg" viewBox="0 0 300 300" role="img" aria-label="Hund">
  <rect width="300" height="300" fill="#FFFFFF"/>
  <ellipse cx="150" cy="216" rx="72" ry="56" fill="#D49A4E" stroke="#1B1B1B" stroke-width="7"/>
  <rect x="116" y="208" width="28" height="58" rx="14" fill="#D49A4E" stroke="#1B1B1B" stroke-width="7"/>
  <rect x="156" y="208" width="28" height="58" rx="14" fill="#D49A4E" stroke="#1B1B1B" stroke-width="7"/>
  <path d="M218 205 Q260 196 252 160" fill="none" stroke="#1B1B1B" stroke-width="15" stroke-linecap="round"/>
  <path d="M218 205 Q258 196 251 162" fill="none" stroke="#D49A4E" stroke-width="8" stroke-linecap="round"/>
  <ellipse cx="98" cy="120" rx="24" ry="44" fill="#B97A2E" stroke="#1B1B1B" stroke-width="7"/>
  <ellipse cx="202" cy="120" rx="24" ry="44" fill="#B97A2E" stroke="#1B1B1B" stroke-width="7"/>
  <circle cx="150" cy="120" r="62" fill="#D49A4E" stroke="#1B1B1B" stroke-width="7"/>
  <ellipse cx="150" cy="150" rx="36" ry="28" fill="#F0D6A8" stroke="#1B1B1B" stroke-width="6"/>
  <circle cx="126" cy="108" r="9" fill="#1B1B1B"/>
  <circle cx="174" cy="108" r="9" fill="#1B1B1B"/>
  <ellipse cx="150" cy="138" rx="13" ry="10" fill="#1B1B1B"/>
  <path d="M150 148 L150 160 M150 160 Q138 168 130 160 M150 160 Q162 168 170 160" fill="none" stroke="#1B1B1B" stroke-width="5" stroke-linecap="round"/>
</svg>
