<svg xmlns="http://www.w3.org/2000/svg" viewBox="0 0 300 300" role="img" aria-label="Schuh">
  <rect width="300" height="300" fill="#FFFFFF"/>
  <path d="M45 198 Q45 150 92 140 Q112 110 136 130 Q150 165 200 168 Q246 172 256 194 Q260 205 246 205 L55 205 Q45 205 45 198 Z" fill="#FF7043" stroke="#1B1B1B" stroke-width="7" stroke-linejoin="round"/>
  <path d="M40 205 L258 205 Q270 206 265 217 Q262 225 250 225 L52 225 Q40 225 38 215 Q36 206 40 205 Z" fill="#FFFFFF" stroke="#1B1B1B" stroke-width="7" stroke-linejoin="round"/>
  <path d="M96 142 Q120 152 136 132" fill="none" stroke="#1B1B1B" stroke-width="5" stroke-linecap="round"/>
  <g stroke="#FFFFFF" stroke-width="5" stroke-linecap="round">
    <path d="M120 150 L152 158"/><path d="M114 166 L150 173"/>
  </g>
</svg>
